<svg enable-background="new 0 0 203.9 203.9" viewBox="0 0 203.9 203.9" xmlns="http://www.w3.org/2000/svg"><path d="m0 0h203.9v203.9h-203.9z" fill="#fff" opacity="0"/><g fill="#005aff"><path d="m46.1 27h17c-28.7 36.4-41.3 74.1-41.3 107 0 14.2 1.4 28 3.7 42.9h-15.6c-5.3-16.2-8-32.3-8-49.7.1-31.8 13.8-68.5 44.2-100.2z"/><path d="m113.7 29.3c26.5 0 39.9 10.3 39.9 30.4 0 2.7-.5 5.7-1.4 9.1h-20.5c.5-2.2.7-4.2.7-6.1 0-11.1-7.3-16.9-21-16.9-14.8 0-23.4 8.6-23.4 17.4 0 9.6 7.5 13.5 22.7 18.6 17.5 5.7 32.2 12 32.2 34.1 0 17.6-16.5 38.7-49.4 38.7-26.8 0-42.3-11.1-42.3-32.3 0-3.2.3-6.4 1.2-10h20.9c-.5 2.7-.8 5.2-.8 7.4 0 12.2 8 18.1 23.1 18.1 18.7 0 26-11 26-19.1 0-11-8-14.2-22.1-19.3-17.6-6.1-32.7-12-32.7-33.6-.1-16 15.7-36.5 46.9-36.5z"/><path d="m157.8 177h-17c28.7-36.5 41.2-74.2 41.2-107.1 0-14.2-1.2-28-3.7-42.9h15.7c5.3 16.2 8 32.3 8 49.7 0 31.8-13.8 68.5-44.2 100.3z"/></g></svg>